<svg width="20" height="20" viewBox="0 0 20 20" fill="none" xmlns="http://www.w3.org/2000/svg">
<path d="M10.941 19.956C13.2587 19.7402 15.4276 18.7194 17.071 17.071C20.976 13.166 20.976 6.834 17.071 2.929C13.166 -0.975998 6.834 -0.975998 2.929 2.929C-0.975998 6.834 -0.975998 13.166 2.929 17.071C3.93007 18.0743 5.13341 18.8527 6.45888 19.3545C7.78435 19.8562 9.20152 20.0698 10.616 19.981C10.7249 19.9968 10.8358 19.9882 10.941 19.956ZM1.577 8.854C1.79084 7.26587 2.45149 5.77117 3.482 4.544L8.94 10L7.852 11.088C6.8 10.238 5.628 9.78 4.511 9.48C3.861 9.306 3.215 9.18 2.624 9.067L2.608 9.063C2.241 8.993 1.898 8.926 1.578 8.854H1.577ZM1.508 10.374C1.774 10.43 2.043 10.482 2.308 10.534L2.322 10.536C2.925 10.653 3.524 10.769 4.121 10.929C5.074 11.185 5.982 11.545 6.783 12.157L3.483 15.457C2.2822 14.0268 1.58784 12.2398 1.508 10.374ZM7.847 13.214C8.522 14.076 8.887 15.02 9.144 15.987C9.269 16.457 9.365 16.915 9.462 17.379L9.546 17.774C9.596 18.014 9.651 18.255 9.711 18.495C7.81557 18.4332 5.99573 17.737 4.543 16.518L7.847 13.214ZM11.24 18.41C11.158 18.12 11.086 17.804 11.012 17.46L10.935 17.093C10.837 16.624 10.73 16.113 10.594 15.601C10.293 14.473 9.832 13.264 8.914 12.147L10 11.061L15.457 16.518C14.2543 17.5281 12.7941 18.1832 11.24 18.41ZM11.06 10L12.272 8.789C13.386 9.731 14.552 10.249 15.637 10.615C16.084 10.767 16.534 10.897 16.948 11.018C17.107 11.064 17.261 11.108 17.408 11.152C17.758 11.258 18.079 11.36 18.372 11.473C18.116 12.9412 17.4764 14.3157 16.518 15.457L11.06 10ZM17.837 9.715L17.335 9.568C16.9266 9.45232 16.5209 9.32762 16.118 9.194C15.174 8.874 14.23 8.454 13.337 7.724L16.517 4.543C17.7837 6.05188 18.4849 7.95501 18.5 9.925C18.28 9.85 18.057 9.781 17.837 9.715ZM15.457 3.482L12.276 6.663C11.546 5.77 11.125 4.826 10.806 3.882C10.665 3.467 10.549 3.068 10.432 2.664C10.382 2.498 10.335 2.331 10.284 2.163C10.218 1.943 10.15 1.72 10.075 1.5C12.0449 1.51486 13.948 2.21571 15.457 3.482ZM9.384 4.362C9.751 5.447 10.268 6.614 11.211 7.728L10 8.94L4.543 3.482C5.68434 2.52359 7.05878 1.88398 8.527 1.628C8.64 1.921 8.742 2.241 8.847 2.592L8.982 3.052C9.102 3.466 9.232 3.915 9.384 4.362Z" fill="#181818"/>
</svg>
