<svg width="24" height="24" viewBox="0 0 24 24" fill="none" xmlns="http://www.w3.org/2000/svg">
<path d="M7.07001 12.8964H7.96638C9.20336 12.8964 10.2073 11.8924 10.2073 10.6555C10.2073 9.41848 9.20336 8.41455 7.96638 8.41455H6.17365C4.93667 8.41455 3.93274 9.41848 3.93274 10.6555V14.6891C3.93274 15.4023 4.21605 16.0863 4.72036 16.5906C5.22466 17.0949 5.90864 17.3782 6.62183 17.3782M6.62183 17.3782H17.3782M6.62183 17.3782V20.0673C6.62183 20.305 6.71627 20.533 6.88437 20.7011C7.05247 20.8692 7.28047 20.9636 7.5182 20.9636H16.4818C16.9748 20.9636 17.3782 20.5603 17.3782 20.0673V17.3782M17.3782 17.3782C18.0914 17.3782 18.7754 17.0949 19.2797 16.5906C19.784 16.0863 20.0673 15.4023 20.0673 14.6891V12.8964C20.0673 12.4209 19.8784 11.9649 19.5422 11.6287C19.206 11.2925 18.75 11.1036 18.2746 11.1036H12" stroke="#181818" stroke-width="1.4" stroke-miterlimit="2" stroke-linecap="round" stroke-linejoin="round"/>
<path d="M3.93273 10.2073C3.48454 10.2073 3.03636 9.31093 3.03636 8.41456V6.62183C3.03636 4.64087 4.64085 3.03638 6.62182 3.03638H17.3782C19.3592 3.03638 20.9636 4.64087 20.9636 6.62183V8.41456C20.9636 9.89804 19.758 11.1037 18.2746 11.1037H10.1625" stroke="#181818" stroke-width="1.4" stroke-miterlimit="2" stroke-linecap="round" stroke-linejoin="round"/>
</svg>
