<svg width="25" height="24" viewBox="0 0 25 24" fill="none" xmlns="http://www.w3.org/2000/svg">
<path d="M11.8292 16.9247L11.8999 16.9954L11.9706 16.9247L15.3246 13.5707L15.3954 13.5L15.3246 13.4292L6.27665 4.38125L6.20594 4.31054L6.13523 4.38125L2.78123 7.73525L2.71051 7.80596L2.78123 7.87667L11.8292 16.9247ZM18.9292 21.3787L18.9999 21.4494L19.0706 21.3787L19.7786 20.6707L19.8494 20.6L19.7786 20.5292L15.4516 16.2022L15.3809 16.1315L15.3102 16.2022L14.6022 16.9102L14.5315 16.981L14.6022 17.0517L18.9292 21.3787ZM16.8734 7.5298L16.8734 7.52984C17.4348 8.08845 18.1134 8.36896 18.9039 8.36896C19.6939 8.36896 20.3711 8.08732 20.9298 7.52654L20.9298 7.52649C21.4884 6.96515 21.7689 6.28681 21.7689 5.49696C21.7689 4.70633 21.4873 4.02885 20.9265 3.47012L20.9265 3.47007C20.3651 2.91149 19.6868 2.63096 18.8969 2.63096C18.1063 2.63096 17.4288 2.91257 16.8701 3.47338L16.8701 3.47342C16.3114 4.03478 16.0309 4.71346 16.0309 5.50396C16.0309 6.29395 16.3126 6.97108 16.8734 7.5298ZM13.6965 13.5L11.8999 15.2965L4.40336 7.79996L6.19994 6.00338L13.6965 13.5ZM20.0824 4.31587L20.1529 4.24496L20.0842 6.68231C19.7598 7.00726 19.3678 7.16896 18.9019 7.16896C18.4361 7.16896 18.0432 7.00787 17.7176 6.68418C17.3926 6.35986 17.2309 5.96777 17.2309 5.50196C17.2309 5.03601 17.3921 4.64313 17.7159 4.31746C18.0401 3.99261 18.4322 3.83096 18.8979 3.83096C19.3639 3.83096 19.7568 3.99209 20.0824 4.31587Z" fill="#181818" stroke="#181818" stroke-width="0.2"/>
</svg>
