<svg width="25" height="24" viewBox="0 0 25 24" fill="none" xmlns="http://www.w3.org/2000/svg">
<path d="M18.29 6.87095C18.3058 6.7737 18.3023 6.67428 18.2798 6.57837C18.2572 6.48246 18.2159 6.39194 18.1584 6.31198C18.1008 6.23203 18.028 6.1642 17.9442 6.11237C17.8604 6.06055 17.7672 6.02574 17.67 6.00995C17.253 5.94095 16.88 6.24395 16.806 6.64795L16.788 6.73795C16.7611 6.86144 16.7307 6.98416 16.697 7.10595C16.608 7.42895 16.459 7.89595 16.22 8.45595C15.5729 9.95553 14.6456 11.3179 13.488 12.4699C11.921 14.0236 10.0115 15.1881 7.91295 15.8699C7.74875 15.922 7.58301 15.969 7.41595 16.0109L7.39395 16.0159H7.38995C7.29369 16.0368 7.20248 16.0775 7.12154 16.1336C7.04059 16.1897 6.9715 16.2612 6.9182 16.3441C6.8649 16.4269 6.82843 16.5194 6.81089 16.6163C6.79335 16.7133 6.79507 16.8127 6.81595 16.9089C6.95795 17.5669 7.70695 17.4829 7.70695 17.4829H7.70995L7.71395 17.4819L7.72495 17.4789L7.76195 17.4699L7.89395 17.4369C8.00595 17.4079 8.16395 17.3639 8.36395 17.3009C10.6927 16.5462 12.8114 15.2545 14.549 13.5299C15.8413 12.2425 16.8761 10.7203 17.598 9.04495C17.867 8.41595 18.038 7.88395 18.142 7.50395C18.1946 7.313 18.2403 7.1202 18.279 6.92595L18.286 6.88895L18.288 6.87795V6.87195L18.29 6.87095Z" fill="#fff"/>
<path d="M3.15295 12.573C2.46895 14.471 2.37795 16.446 3.59095 17.672L3.82495 17.91C4.82917 18.9264 5.83684 19.9394 6.84795 20.949C8.12795 22.229 10.153 22.249 12.137 21.609C14.163 20.954 16.387 19.548 18.363 17.572C20.339 15.596 21.745 13.372 22.4 11.346C23.04 9.36201 23.02 7.33701 21.74 6.05701C20.7734 5.08891 19.8094 4.11824 18.848 3.14501L18.486 2.77901L18.484 2.78101C17.259 1.56701 15.283 1.65701 13.384 2.34101C11.419 3.05001 9.23495 4.48401 7.26495 6.45401C5.29495 8.42401 3.86095 10.608 3.15295 12.573ZM4.56295 13.081C5.18195 11.367 6.47695 9.36401 8.32595 7.51501C10.176 5.66501 12.178 4.37001 13.892 3.75301C15.668 3.11301 16.862 3.28001 17.432 3.85101L17.435 3.84901L17.783 4.20101C18.7471 5.17449 19.7125 6.14682 20.679 7.11801C21.354 7.79201 21.554 9.08501 20.972 10.885C20.405 12.642 19.146 14.668 17.302 16.511C15.459 18.355 13.432 19.614 11.676 20.181C9.87595 20.763 8.58295 20.563 7.90895 19.888C6.93295 18.912 6.11895 18.094 5.55095 17.521L4.89095 16.855L4.66095 16.622H4.66295C4.09095 16.05 3.92295 14.856 4.56295 13.081Z" fill="#fff"/>
</svg>
