<svg width="92" height="18" viewBox="0 0 92 18" fill="none" xmlns="http://www.w3.org/2000/svg">
<path d="M8.23935 4.17401C8.18821 3.65838 7.96875 3.25781 7.58097 2.9723C7.19318 2.68679 6.6669 2.54403 6.00213 2.54403C5.55043 2.54403 5.16903 2.60795 4.85795 2.7358C4.54688 2.85937 4.30824 3.03196 4.14205 3.25355C3.98011 3.47514 3.89915 3.72656 3.89915 4.00781C3.89063 4.24219 3.93963 4.44673 4.04616 4.62145C4.15696 4.79616 4.30824 4.94744 4.5 5.07528C4.69176 5.19886 4.91335 5.30753 5.16477 5.40128C5.41619 5.49077 5.68466 5.56747 5.97017 5.63139L7.14631 5.91264C7.71733 6.04048 8.24148 6.21094 8.71875 6.42401C9.19602 6.63707 9.60938 6.89915 9.95881 7.21023C10.3082 7.52131 10.5788 7.88778 10.7706 8.30966C10.9666 8.73153 11.0668 9.2152 11.071 9.76065C11.0668 10.5618 10.8622 11.2564 10.4574 11.8445C10.0568 12.4283 9.47727 12.8821 8.71875 13.206C7.96449 13.5256 7.05469 13.6854 5.98935 13.6854C4.93253 13.6854 4.01207 13.5234 3.22798 13.1996C2.44815 12.8757 1.83878 12.3963 1.39986 11.7614C0.965199 11.1222 0.737216 10.3317 0.715909 9.38991H3.39418C3.42401 9.82884 3.54972 10.1953 3.77131 10.4893C3.99716 10.7791 4.29759 10.9986 4.67259 11.1477C5.05185 11.2926 5.48011 11.3651 5.95739 11.3651C6.42614 11.3651 6.8331 11.2969 7.17827 11.1605C7.5277 11.0241 7.7983 10.8345 7.99006 10.5916C8.18182 10.3487 8.2777 10.0696 8.2777 9.75426C8.2777 9.46023 8.19034 9.21307 8.01562 9.01278C7.84517 8.8125 7.59375 8.64205 7.26136 8.50142C6.93324 8.3608 6.53054 8.23295 6.05327 8.1179L4.62784 7.75994C3.52415 7.49148 2.6527 7.07173 2.01349 6.50071C1.37429 5.92969 1.05682 5.16051 1.06108 4.19318C1.05682 3.40057 1.26776 2.7081 1.69389 2.11577C2.12429 1.52344 2.71449 1.06108 3.46449 0.728693C4.21449 0.396306 5.06676 0.230113 6.02131 0.230113C6.9929 0.230113 7.84091 0.396306 8.56534 0.728693C9.29403 1.06108 9.8608 1.52344 10.2656 2.11577C10.6705 2.7081 10.8793 3.39418 10.892 4.17401H8.23935ZM12.8816 17.1818V3.68182H15.5662V5.33097H15.6877C15.807 5.06676 15.9796 4.7983 16.2054 4.52557C16.4355 4.24858 16.7338 4.01847 17.1003 3.83523C17.4711 3.64773 17.9313 3.55398 18.481 3.55398C19.1969 3.55398 19.8574 3.74148 20.4625 4.11648C21.0676 4.48722 21.5513 5.04759 21.9135 5.79759C22.2757 6.54332 22.4569 7.47869 22.4569 8.60369C22.4569 9.69886 22.28 10.6236 21.9263 11.3778C21.5769 12.1278 21.0996 12.6967 20.4945 13.0845C19.8936 13.468 19.2203 13.6598 18.4746 13.6598C17.9462 13.6598 17.4966 13.5724 17.1259 13.3977C16.7594 13.223 16.459 13.0036 16.2246 12.7393C15.9902 12.4709 15.8113 12.2003 15.6877 11.9276H15.6046V17.1818H12.8816ZM15.5471 8.59091C15.5471 9.17472 15.628 9.68395 15.79 10.1186C15.9519 10.5533 16.1863 10.892 16.4931 11.1349C16.7999 11.3736 17.1728 11.4929 17.6117 11.4929C18.0549 11.4929 18.4299 11.3714 18.7367 11.1286C19.0435 10.8814 19.2757 10.5405 19.4334 10.1058C19.5953 9.6669 19.6763 9.16193 19.6763 8.59091C19.6763 8.02415 19.5975 7.52557 19.4398 7.09517C19.2821 6.66477 19.0499 6.32812 18.7431 6.08523C18.4363 5.84233 18.0591 5.72088 17.6117 5.72088C17.1685 5.72088 16.7935 5.83807 16.4867 6.07244C16.1841 6.30682 15.9519 6.6392 15.79 7.0696C15.628 7.5 15.5471 8.0071 15.5471 8.59091ZM28.7083 13.6918C27.7154 13.6918 26.8567 13.4808 26.1323 13.0589C25.4121 12.6328 24.856 12.0405 24.464 11.282C24.0719 10.5192 23.8759 9.63494 23.8759 8.62926C23.8759 7.61506 24.0719 6.72869 24.464 5.97017C24.856 5.20739 25.4121 4.61506 26.1323 4.19318C26.8567 3.76705 27.7154 3.55398 28.7083 3.55398C29.7012 3.55398 30.5577 3.76705 31.2779 4.19318C32.0023 4.61506 32.5605 5.20739 32.9526 5.97017C33.3446 6.72869 33.5407 7.61506 33.5407 8.62926C33.5407 9.63494 33.3446 10.5192 32.9526 11.282C32.5605 12.0405 32.0023 12.6328 31.2779 13.0589C30.5577 13.4808 29.7012 13.6918 28.7083 13.6918ZM28.7211 11.5824C29.1728 11.5824 29.5499 11.4545 29.8525 11.1989C30.155 10.9389 30.383 10.5852 30.5364 10.1378C30.6941 9.69034 30.7729 9.18111 30.7729 8.61009C30.7729 8.03906 30.6941 7.52983 30.5364 7.08239C30.383 6.63494 30.155 6.28125 29.8525 6.02131C29.5499 5.76136 29.1728 5.63139 28.7211 5.63139C28.2651 5.63139 27.8816 5.76136 27.5705 6.02131C27.2637 6.28125 27.0314 6.63494 26.8738 7.08239C26.7203 7.52983 26.6436 8.03906 26.6436 8.61009C26.6436 9.18111 26.7203 9.69034 26.8738 10.1378C27.0314 10.5852 27.2637 10.9389 27.5705 11.1989C27.8816 11.4545 28.2651 11.5824 28.7211 11.5824ZM35.3113 13.5V3.68182H37.9512V5.39489H38.0534C38.2324 4.78551 38.5328 4.32528 38.9547 4.0142C39.3766 3.69886 39.8624 3.54119 40.4121 3.54119C40.5485 3.54119 40.6955 3.54972 40.8532 3.56676C41.0108 3.58381 41.1493 3.60724 41.2686 3.63707V6.05327C41.1408 6.01491 40.964 5.98082 40.7381 5.95099C40.5123 5.92116 40.3056 5.90625 40.1181 5.90625C39.7175 5.90625 39.3596 5.99361 39.0442 6.16832C38.7331 6.33878 38.486 6.57741 38.3027 6.88423C38.1238 7.19105 38.0343 7.54474 38.0343 7.94531V13.5H35.3113ZM48.391 3.68182V5.72727H42.4783V3.68182H48.391ZM43.8207 1.32955H46.5437V10.483C46.5437 10.7344 46.582 10.9304 46.6587 11.071C46.7354 11.2074 46.842 11.3033 46.9783 11.3587C47.119 11.4141 47.2809 11.4418 47.4641 11.4418C47.592 11.4418 47.7198 11.4311 47.8477 11.4098C47.9755 11.3842 48.0735 11.3651 48.1417 11.3523L48.57 13.3786C48.4336 13.4212 48.2418 13.4702 47.9947 13.5256C47.7475 13.5852 47.4471 13.6214 47.0934 13.6342C46.4371 13.6598 45.8619 13.5724 45.3675 13.3722C44.8775 13.1719 44.4961 12.8608 44.2234 12.4389C43.9506 12.017 43.8164 11.4844 43.8207 10.8409V1.32955Z" fill="#18C653"/>
<path d="M51.7564 13.6662C51.3345 13.6662 50.9723 13.517 50.6697 13.2188C50.3714 12.9162 50.2223 12.554 50.2223 12.1321C50.2223 11.7145 50.3714 11.3565 50.6697 11.0582C50.9723 10.7599 51.3345 10.6108 51.7564 10.6108C52.1655 10.6108 52.5234 10.7599 52.8303 11.0582C53.1371 11.3565 53.2905 11.7145 53.2905 12.1321C53.2905 12.4134 53.218 12.6712 53.0732 12.9055C52.9325 13.1357 52.7472 13.321 52.517 13.4616C52.2869 13.598 52.0334 13.6662 51.7564 13.6662ZM59.1184 13.6918C58.1085 13.6918 57.2775 13.4787 56.6255 13.0526C55.9778 12.6222 55.524 12.0256 55.264 11.2628C55.0083 10.5 54.9636 9.62216 55.1298 8.62926C55.2917 7.62358 55.6305 6.74148 56.1461 5.98295C56.6618 5.22017 57.3159 4.62571 58.1085 4.19957C58.9054 3.76918 59.8002 3.55398 60.7931 3.55398C61.6497 3.55398 62.3741 3.70952 62.9664 4.0206C63.5588 4.33168 63.9934 4.76847 64.2704 5.33097C64.5474 5.89347 64.6412 6.55398 64.5517 7.3125H61.9885C61.9927 6.8267 61.867 6.43253 61.6113 6.12997C61.3556 5.82741 60.9806 5.67614 60.4863 5.67614C60.0602 5.67614 59.6681 5.79119 59.3102 6.02131C58.9565 6.24716 58.6561 6.57741 58.4089 7.01207C58.166 7.44673 57.9956 7.97301 57.8975 8.59091C57.7953 9.21733 57.7931 9.75 57.8912 10.1889C57.9892 10.6278 58.1767 10.9624 58.4537 11.1925C58.7306 11.4226 59.0801 11.5376 59.502 11.5376C59.8173 11.5376 60.1092 11.4737 60.3777 11.3459C60.6504 11.218 60.889 11.0327 61.0936 10.7898C61.2981 10.5426 61.4558 10.2464 61.5666 9.90128H64.1362C63.9615 10.6555 63.644 11.3161 63.1838 11.8828C62.7278 12.4496 62.1547 12.8928 61.4643 13.2124C60.774 13.532 59.992 13.6918 59.1184 13.6918ZM69.7212 13.6918C68.7198 13.6918 67.891 13.4787 67.2347 13.0526C66.5785 12.6222 66.1161 12.0256 65.8477 11.2628C65.5835 10.4957 65.5344 9.60298 65.7006 8.58452C65.8626 7.57883 66.1992 6.69886 66.7106 5.9446C67.2219 5.19034 67.8718 4.6044 68.6602 4.18679C69.4485 3.76491 70.337 3.55398 71.3256 3.55398C72.3228 3.55398 73.1495 3.76918 73.8058 4.19957C74.462 4.62571 74.9244 5.2223 75.1928 5.98935C75.4613 6.75639 75.5124 7.64915 75.3462 8.66761C75.18 9.66903 74.8391 10.5469 74.3235 11.3011C73.8079 12.0554 73.158 12.6435 72.3739 13.0653C71.5898 13.483 70.7056 13.6918 69.7212 13.6918ZM69.9897 11.5824C70.4499 11.5824 70.8569 11.4524 71.2106 11.1925C71.5685 10.9283 71.8647 10.5703 72.0991 10.1186C72.3377 9.66264 72.5039 9.14702 72.5977 8.57173C72.6914 8.00497 72.6978 7.50213 72.6168 7.06321C72.5359 6.62003 72.3654 6.2706 72.1055 6.01491C71.8498 5.75923 71.4982 5.63139 71.0508 5.63139C70.5906 5.63139 70.1815 5.76349 69.8235 6.0277C69.4656 6.28764 69.1694 6.6456 68.935 7.10156C68.7006 7.55753 68.5366 8.07528 68.4428 8.65483C68.3533 9.21733 68.3469 9.72017 68.4237 10.1634C68.5004 10.6023 68.6687 10.9496 68.9286 11.2053C69.1886 11.4567 69.5423 11.5824 69.9897 11.5824ZM76.3306 13.5L77.967 3.68182H80.5558L80.2745 5.41406H80.3832C80.6815 4.83878 81.0969 4.38494 81.6296 4.05256C82.1665 3.72017 82.7695 3.55398 83.4386 3.55398C84.1033 3.55398 84.6445 3.7223 85.0621 4.05895C85.484 4.39133 85.7269 4.84304 85.7908 5.41406H85.8931C86.1829 4.85156 86.6197 4.40199 87.2035 4.06534C87.7873 3.72443 88.4393 3.55398 89.1594 3.55398C90.0671 3.55398 90.7617 3.84588 91.2433 4.42969C91.7248 5.01349 91.8761 5.83594 91.6971 6.89702L90.5977 13.5H87.8746L88.8974 7.43395C88.9783 6.88423 88.8974 6.47514 88.6545 6.20668C88.4116 5.93395 88.0728 5.79759 87.6381 5.79759C87.1438 5.79759 86.7326 5.95526 86.4045 6.2706C86.0764 6.58168 85.8739 6.9929 85.7972 7.50426L84.7809 13.5H82.141L83.1765 7.37642C83.2489 6.89062 83.1701 6.5071 82.94 6.22585C82.7141 5.94034 82.3754 5.79759 81.9237 5.79759C81.6254 5.79759 81.342 5.87429 81.0735 6.0277C80.8093 6.17685 80.5856 6.38778 80.4023 6.66051C80.2191 6.92898 80.0998 7.24432 80.0444 7.60653L79.0472 13.5H76.3306Z" fill="white"/>
</svg>
